# xmcd
#
# Track frame offsets:
# 150
# 16015
# 33785
# 53017
# 74902
# 90223
# 102925
# 116987
# 139655
# 161098
# 177269
# 190753
#
# Disc length: 3116 seconds
#
# Revision: 0
# Processed by: cddbd v1.5.2PL0 Copyright (c) Steve Scherf et al.
# Submitted via: Audion 3.0.2 (http://www.panic.com/audion/)
#
DISCID=990c2a0c
DTITLE=Joe Williams - Ballad and Blues
DYEAR=1900
DGENRE=
TTITLE0=You Showed Me The Way
TTITLE1=Everyday (I'll Fall In Love)
TTITLE2=You Can Depend On Me
TTITLE3=A Hundred Years From Today/Tomorrow Night
TTITLE4=Ain't No Use
TTITLE5=I've Only Myself To Blame
TTITLE6=When Sunny Gets Blue
TTITLE7=Who She Do
TTITLE8=I Ain't Nothing But The Blues
TTITLE9=Dinner For One Please, James
TTITLE10=You've Got Me Crying Again
TTITLE11=Blues Medley
EXTD=
EXTT0=
EXTT1=
EXTT2=
EXTT3=
EXTT4=
EXTT5=
EXTT6=
EXTT7=
EXTT8=
EXTT9=
EXTT10=
EXTT11=
PLAYORDER=
